{
    "asset" : {
        "generator" : "Khronos glTF Blender I/O v1.3.48",
        "version" : "2.0"
    },
    "scene" : 0,
    "scenes" : [
        {
            "name" : "Scene",
            "nodes" : [
                0
            ]
        }
    ],
    "nodes" : [
        {
            "mesh" : 0,
            "name" : "Chichen Itza PyramidScaleModel",
            "translation" : [
                -28.244585037231445,
                0,
                27.359315872192383
            ]
        }
    ],
    "materials" : [
        {
            "doubleSided" : true,
            "emissiveFactor" : [
                0.0484776496887207,
                0.17794907093048096,
                0.23955319821834564
            ],
            "name" : "Material",
            "pbrMetallicRoughness" : {
                "baseColorTexture" : {
                    "index" : 0,
                    "texCoord" : 0
                },
                "metallicFactor" : 0.42553192377090454,
                "roughnessFactor" : 0.5
            }
        }
    ],
    "meshes" : [
        {
            "name" : "Chichen Itza PyramidScaleModel",
            "primitives" : [
                {
                    "attributes" : {
                        "POSITION" : 0,
                        "NORMAL" : 1
                    },
                    "indices" : 2,
                    "material" : 0
                }
            ]
        }
    ],
    "textures" : [
        {
            "source" : 0
        }
    ],
    "images" : [
        {
            "bufferView" : 3,
            "mimeType" : "image/jpeg",
            "name" : "black-stone-rock-texture-1142613"
        }
    ],
    "accessors" : [
        {
            "bufferView" : 0,
            "componentType" : 5126,
            "count" : 12685,
            "max" : [
                61.41027069091797,
                30,
                6.110000133514404
            ],
            "min" : [
                -6.110000133514404,
                -4.440892098500626e-16,
                -61.41027069091797
            ],
            "type" : "VEC3"
        },
        {
            "bufferView" : 1,
            "componentType" : 5126,
            "count" : 12685,
            "type" : "VEC3"
        },
        {
            "bufferView" : 2,
            "componentType" : 5123,
            "count" : 19008,
            "type" : "SCALAR"
        }
    ],
    "bufferViews" : [
        {
            "buffer" : 0,
            "byteLength" : 152220,
            "byteOffset" : 0
        },
        {
            "buffer" : 0,
            "byteLength" : 152220,
            "byteOffset" : 152220
        },
        {
            "buffer" : 0,
            "byteLength" : 38016,
            "byteOffset" : 304440
        },
        {
            "buffer" : 0,
            "byteLength" : 1025966,
            "byteOffset" : 342456
        }
    ],
    "buffers" : [
        {
            "byteLength" : 1368424,
            "uri" : "data:application/octet-stream;base64,"
        }
    ]
}
