{
    "asset" : {
        "generator" : "Khronos glTF Blender I/O v1.3.48",
        "version" : "2.0"
    },
    "scene" : 0,
    "scenes" : [
        {
            "name" : "Scene",
            "nodes" : [
                0
            ]
        }
    ],
    "nodes" : [
        {
            "mesh" : 0,
            "name" : "Giza",
            "translation" : [
                85.44249725341797,
                0,
                129.5310516357422
            ]
        }
    ],
    "materials" : [
        {
            "doubleSided" : true,
            "emissiveFactor" : [
                0.2810097336769104,
                0.14096347987651825,
                0
            ],
            "name" : "Material.001",
            "pbrMetallicRoughness" : {
                "baseColorFactor" : [
                    0.7097931504249573,
                    0.8000000715255737,
                    0.10669633746147156,
                    1
                ],
                "metallicFactor" : 0.8439716100692749,
                "roughnessFactor" : 0.5
            }
        }
    ],
    "meshes" : [
        {
            "name" : "Giza",
            "primitives" : [
                {
                    "attributes" : {
                        "POSITION" : 0,
                        "NORMAL" : 1
                    },
                    "indices" : 2,
                    "material" : 0
                }
            ]
        }
    ],
    "accessors" : [
        {
            "bufferView" : 0,
            "componentType" : 5126,
            "count" : 27361,
            "max" : [
                -5,
                38.5,
                -50
            ],
            "min" : [
                -175,
                0,
                -220
            ],
            "type" : "VEC3"
        },
        {
            "bufferView" : 1,
            "componentType" : 5126,
            "count" : 27361,
            "type" : "VEC3"
        },
        {
            "bufferView" : 2,
            "componentType" : 5123,
            "count" : 34578,
            "type" : "SCALAR"
        }
    ],
    "bufferViews" : [
        {
            "buffer" : 0,
            "byteLength" : 328332,
            "byteOffset" : 0
        },
        {
            "buffer" : 0,
            "byteLength" : 328332,
            "byteOffset" : 328332
        },
        {
            "buffer" : 0,
            "byteLength" : 69156,
            "byteOffset" : 656664
        }
    ],
    "buffers" : [
        {
            "byteLength" : 725820,
            "uri" : "data:application/octet-stream;base64,"
        }
    ]
}
