{
    "asset" : {
        "generator" : "Khronos glTF Blender I/O v1.3.48",
        "version" : "2.0"
    },
    "scene" : 0,
    "scenes" : [
        {
            "name" : "Scene",
            "nodes" : [
                0
            ]
        }
    ],
    "nodes" : [
        {
            "mesh" : 0,
            "name" : "rapa_nui_moai_3d_model.003",
            "rotation" : [
                -0.023284120485186577,
                0,
                0,
                0.9997289776802063
            ]
        }
    ],
    "materials" : [
        {
            "alphaCutoff" : 0.5,
            "alphaMode" : "MASK",
            "doubleSided" : true,
            "emissiveFactor" : [
                0.026004085317254066,
                0.07322889566421509,
                0.01834593154489994
            ],
            "name" : "Default OBJ",
            "pbrMetallicRoughness" : {
                "baseColorTexture" : {
                    "index" : 0,
                    "texCoord" : 0
                },
                "metallicFactor" : 0.4751773178577423,
                "roughnessFactor" : 0.5
            }
        }
    ],
    "meshes" : [
        {
            "name" : "rapa_nui_moai_3d_model.003",
            "primitives" : [
                {
                    "attributes" : {
                        "POSITION" : 0,
                        "NORMAL" : 1,
                        "TEXCOORD_0" : 2
                    },
                    "indices" : 3,
                    "material" : 0
                }
            ]
        }
    ],
    "textures" : [
        {
            "source" : 0
        }
    ],
    "images" : [
        {
            "bufferView" : 4,
            "mimeType" : "image/jpeg",
            "name" : "107483441-stone-texture-rock-texture-stone"
        }
    ],
    "accessors" : [
        {
            "bufferView" : 0,
            "componentType" : 5126,
            "count" : 2837,
            "max" : [
                28.670072555541992,
                149.4735565185547,
                9.029902458190918
            ],
            "min" : [
                -28.67007064819336,
                0,
                -48.37512969970703
            ],
            "type" : "VEC3"
        },
        {
            "bufferView" : 1,
            "componentType" : 5126,
            "count" : 2837,
            "type" : "VEC3"
        },
        {
            "bufferView" : 2,
            "componentType" : 5126,
            "count" : 2837,
            "type" : "VEC2"
        },
        {
            "bufferView" : 3,
            "componentType" : 5123,
            "count" : 17010,
            "type" : "SCALAR"
        }
    ],
    "bufferViews" : [
        {
            "buffer" : 0,
            "byteLength" : 34044,
            "byteOffset" : 0
        },
        {
            "buffer" : 0,
            "byteLength" : 34044,
            "byteOffset" : 34044
        },
        {
            "buffer" : 0,
            "byteLength" : 22696,
            "byteOffset" : 68088
        },
        {
            "buffer" : 0,
            "byteLength" : 34020,
            "byteOffset" : 90784
        },
        {
            "buffer" : 0,
            "byteLength" : 424278,
            "byteOffset" : 124804
        }
    ],
    "buffers" : [
        {
            "byteLength" : 549084,
            "uri" : "data:application/octet-stream;base64,"
        }
    ]
}
